<svg width="20" height="11" viewBox="0 0 20 11" fill="none" xmlns="http://www.w3.org/2000/svg">
<path fill-rule="evenodd" clip-rule="evenodd" d="M0 9.97607C0 9.55321 0.447715 9.21042 1 9.21042H19C19.5523 9.21042 20 9.55321 20 9.97607C20 10.3989 19.5523 10.7417 19 10.7417H1C0.447715 10.7417 0 10.3989 0 9.97607Z" fill="#333333"/>
<path fill-rule="evenodd" clip-rule="evenodd" d="M0 0.788185C0 0.365321 0.447715 0.022522 1 0.022522H19C19.5523 0.022522 20 0.365321 20 0.788185C20 1.21105 19.5523 1.55385 19 1.55385H1C0.447715 1.55385 0 1.21105 0 0.788185Z" fill="#333333"/>
<path fill-rule="evenodd" clip-rule="evenodd" d="M0 5.38213C0 4.95926 0.447715 4.61646 1 4.61646H19C19.5523 4.61646 20 4.95926 20 5.38213C20 5.80499 19.5523 6.1478 19 6.1478H1C0.447715 6.1478 0 5.80499 0 5.38213Z" fill="#333333"/>
</svg>
